<?xml version="1.0" encoding="UTF-8" standalone="no"?>
<!-- Created with Inkscape (http://www.inkscape.org/) -->

<svg
   width="850"
   height="850"
   viewBox="0 0 224.89582 224.89584"
   version="1.1"
   id="svg5"
   xml:space="preserve"
   inkscape:version="1.2.2 (b0a8486541, 2022-12-01)"
   sodipodi:docname="favicon.svg"
   inkscape:export-filename="logo to2viajes.svg"
   inkscape:export-xdpi="96"
   inkscape:export-ydpi="96"
   xmlns:inkscape="http://www.inkscape.org/namespaces/inkscape"
   xmlns:sodipodi="http://sodipodi.sourceforge.net/DTD/sodipodi-0.dtd"
   xmlns="http://www.w3.org/2000/svg"
   xmlns:svg="http://www.w3.org/2000/svg"><sodipodi:namedview
     id="namedview7"
     pagecolor="#ffffff"
     bordercolor="#000000"
     borderopacity="0.25"
     inkscape:showpageshadow="2"
     inkscape:pageopacity="0.0"
     inkscape:pagecheckerboard="0"
     inkscape:deskcolor="#d1d1d1"
     inkscape:document-units="px"
     showgrid="true"
     inkscape:zoom="0.24626871"
     inkscape:cx="1319.6967"
     inkscape:cy="267.99994"
     inkscape:window-width="1310"
     inkscape:window-height="699"
     inkscape:window-x="0"
     inkscape:window-y="0"
     inkscape:window-maximized="1"
     inkscape:current-layer="layer1"><inkscape:grid
       type="xygrid"
       id="grid9"
       spacingx="0.52916666"
       spacingy="0.52916666"
       originx="0"
       originy="0" /></sodipodi:namedview><defs
     id="defs2"><rect
       x="892.96851"
       y="117.72254"
       width="1401.1854"
       height="287.12814"
       id="rect7582" /><rect
       x="101.44611"
       y="594.0542"
       width="602.33282"
       height="134.47073"
       id="rect2654" /></defs><g
     inkscape:groupmode="layer"
     id="layer2"
     inkscape:label="Capa 2"
     style="display:inline" /><g
     inkscape:label="Capa 1"
     inkscape:groupmode="layer"
     id="layer1"><g
       id="g2598"
       transform="matrix(1.6288591,0,0,1.6288591,-29.249023,-95.41126)"><g
         id="g352"
         style="fill:#ab2f21;fill-opacity:1"
         transform="matrix(1.2528554,0,0,1.3689778,-10.700611,-42.847226)"><path
           id="rect334"
           style="fill:#ab2f21;fill-opacity:1;stroke-width:0.253613"
           d="m 46.047632,130.89465 c -1.412251,0 -2.549473,1.13689 -2.549473,2.54914 v 4.90689 c 0,1.41224 1.137222,2.54913 2.549473,2.54913 h 0.440929 a 12.28564,11.46471 0 0 1 -0.04661,-0.88784 12.28564,11.46471 0 0 1 4.860125,-9.11732 z m 20.127674,0 a 12.28564,11.46471 0 0 1 4.837852,9.11732 12.28564,11.46471 0 0 1 -0.04661,0.88784 h 20.293074 a 12.28564,11.46471 0 0 1 -0.04661,-0.88784 12.28564,11.46471 0 0 1 4.860125,-9.11732 z m 44.771064,0 a 12.28564,11.46471 0 0 1 4.83785,9.11732 12.28564,11.46471 0 0 1 -0.0466,0.88784 h 2.88192 c 1.41225,0 2.54906,-1.13689 2.54906,-2.54913 v -4.90689 c 0,-1.41225 -1.13681,-2.54914 -2.54906,-2.54914 z" /><path
           id="rect336"
           style="fill:#ab2f21;fill-opacity:1;stroke-width:0.160109"
           d="m 43.504759,130.46772 v 5.68526 h 3.669739 a 12.28564,11.46471 0 0 1 4.748346,-5.68526 z m 22.027507,0 a 12.28564,11.46471 0 0 1 4.763608,5.68526 h 21.649685 a 12.28564,11.46471 0 0 1 4.748346,-5.68526 z m 44.771064,0 a 12.28564,11.46471 0 0 1 4.76361,5.68526 h 6.06866 v -5.68526 z" /><path
           id="rect1903"
           style="display:inline;fill:#ab2f21;fill-opacity:1;stroke-width:0.201746"
           d="m 104.72056,105.34026 -12.924727,3.8e-4 c -1.124063,0 -2.028936,0.83051 -2.028936,1.86212 v 25.65782 c 0,1.03161 0.904873,1.86212 2.028936,1.86212 h 0.812152 a 12.28564,11.46471 0 0 1 10.890425,-6.17523 12.28564,11.46471 0 0 1 10.89991,6.17523 h 4.72814 c 1.12406,0 2.02893,-0.83051 2.02893,-1.86212 v -1.80625 h -1.88168 c -1.01245,0 -1.82724,-0.74609 -1.82724,-1.67262 v -2.5397 c 0,-0.92657 0.81479,-1.67262 1.82724,-1.67262 h 1.48365 c -0.0182,-0.48908 -0.0297,-1.10727 -0.0297,-1.8927 0,-3.72447 -2.17536,-7.45036 -2.17536,-7.45036 0,0 -2.06217,-1.89245 -7.65749,-7.02758 -2.44013,-2.23941 -3.9245,-3.14673 -4.82342,-3.45849 h -1.19657 c -0.11668,0.09 -0.14849,0.18988 -0.14849,0.18988 z m -8.739814,3.59023 h 7.530454 c 0.8644,0 1.61822,0.41801 2.0343,1.046 v 3.8e-4 l 8.77817,7.88598 c 0.78856,0.28002 1.34506,0.97953 1.34506,1.80247 0,1.07099 -0.942,1.93309 -2.11226,1.93309 h -9.91205 c -0.044,0.002 -0.0885,0.003 -0.13322,0.003 h -7.530454 c -1.317186,0 -2.377473,-0.97072 -2.377473,-2.17618 v -8.31932 c 0,-1.20546 1.060287,-2.17581 2.377473,-2.17581 z" /></g><g
         id="g348"
         style="fill:#0e7be7;fill-opacity:1"
         transform="matrix(1.1007391,0,0,1.1106003,-4.2577689,-8.1583588)"><path
           id="rect342"
           style="fill:#0e7be7;fill-opacity:1;stroke-width:0.261399"
           d="m 46.732147,93.587728 c -1.4859,0 -2.682084,1.196099 -2.682084,2.681999 v 8.594123 h 20.105066 c 0.815098,0 1.47132,0.65039 1.47132,1.45826 0,0.80786 -0.656222,1.45779 -1.47132,1.45779 H 44.050063 v 2.46424 h 14.454052 c 0.815099,0 1.47132,0.65039 1.47132,1.45825 0,0.80786 -0.656221,1.45826 -1.47132,1.45826 H 44.050063 v 2.66152 h 8.567364 c 0.8151,0 1.47132,0.6504 1.47132,1.45826 0,0.80786 -0.65622,1.45826 -1.47132,1.45826 h -8.567364 v 4.25099 c 0,1.48591 1.196184,2.68247 2.682084,2.68247 h 44.450857 c 1.4859,0 2.682084,-1.19656 2.682084,-2.68247 V 96.269727 c 0,-1.4859 -1.196184,-2.681999 -2.682084,-2.681999 z" /><rect
           style="fill:#0e7be7;fill-opacity:1;stroke-width:0.265995"
           id="rect344"
           width="49.97813"
           height="7.2509661"
           x="43.980293"
           y="120.05818"
           ry="0" /></g><path
         id="path1961"
         style="fill:#0e7be7;fill-opacity:1;stroke-width:0.232418"
         d="m 62.966518,136.86068 a 12.362861,12.362861 0 0 0 -12.36307,12.36306 12.362861,12.362861 0 0 0 12.36307,12.36307 12.362861,12.362861 0 0 0 12.36307,-12.36307 12.362861,12.362861 0 0 0 -12.36307,-12.36306 z m 0,5.91178 a 6.4513745,6.4513745 0 0 1 6.45128,6.45128 6.4513745,6.4513745 0 0 1 -6.45128,6.45129 6.4513745,6.4513745 0 0 1 -6.45129,-6.45129 6.4513745,6.4513745 0 0 1 6.45129,-6.45128 z" /><path
         id="path2311"
         style="fill:#0e7be7;fill-opacity:1;stroke-width:0.232418"
         d="m 119.2732,137.08487 a 12.362861,12.362861 0 0 0 -12.36306,12.36306 12.362861,12.362861 0 0 0 12.36306,12.36307 12.362861,12.362861 0 0 0 12.36307,-12.36307 12.362861,12.362861 0 0 0 -12.36307,-12.36306 z m 0,5.91178 a 6.4513745,6.4513745 0 0 1 6.45129,6.45128 6.4513745,6.4513745 0 0 1 -6.45129,6.45129 6.4513745,6.4513745 0 0 1 -6.45128,-6.45129 6.4513745,6.4513745 0 0 1 6.45128,-6.45128 z" /><rect
         style="fill:#0e7be7;fill-opacity:1;stroke-width:0.264583"
         id="rect2571"
         width="33.90287"
         height="3.2390368"
         x="38.310398"
         y="123.64904"
         ry="1.6195184" /><rect
         style="fill:#0e7be7;fill-opacity:1;stroke-width:0.264583"
         id="rect2573"
         width="33.90287"
         height="3.2390368"
         x="34.606232"
         y="117.29904"
         ry="1.6195184" /><rect
         style="fill:#0e7be7;fill-opacity:1;stroke-width:0.286823"
         id="rect2575"
         width="39.841824"
         height="3.2390368"
         x="30.902061"
         y="111.47821"
         ry="1.6195184" /></g></g></svg>
